<svg id="Layer_1" data-name="Layer 1" xmlns="http://www.w3.org/2000/svg" viewBox="0 0 363.2 77.69"><defs><style>.cls-1{fill:#fff;}.cls-2{fill:#e81719;}</style></defs><title>sugarcon-logo</title><path class="cls-1" d="M0.1,65.59H10.2v0.6c0,1.3.3,2.2,0.9,2.6s1.9,0.7,3.9.7H27.8a4.47,4.47,0,0,0,2.7-.6,2.56,2.56,0,0,0,.8-2.1,2.66,2.66,0,0,0-.9-2.2,10.61,10.61,0,0,0-4-.9l-16.1-.4c-4-.1-6.8-0.9-8.2-2.3S0,57,0,53.29a19.85,19.85,0,0,1,.5-4.7,7.93,7.93,0,0,1,1.8-3.1,8.63,8.63,0,0,1,3.8-2,31.17,31.17,0,0,1,7.9-.7H29.6c3.9,0,6.6.7,8.4,2.1s2.5,3.7,2.5,6.9v0.7a6.82,6.82,0,0,1-.1,1.2H30.6v-0.1a3.74,3.74,0,0,0-.8-2.5,3.74,3.74,0,0,0-2.5-.8H15.4q-3,0-3.9.6a2.26,2.26,0,0,0-.9,2,2.45,2.45,0,0,0,.9,2.1,6.62,6.62,0,0,0,3.2.8l16.8,0.3c3.8,0.1,6.5,1,8.1,2.6s2.3,4.4,2.3,8.3a13.16,13.16,0,0,1-.9,5.4,8.29,8.29,0,0,1-2.9,3.3,8.48,8.48,0,0,1-3.7,1.2,51.83,51.83,0,0,1-6.7.4H14.1c-5.6,0-9.4-.6-11.2-1.9S0,71.69,0,68.19v-1a7.59,7.59,0,0,0,.1-1.6"/><path class="cls-1" d="M45.4,43.19H55.6v19.9q0,3.45,1.5,4.5c1,0.8,3.3,1.2,6.7,1.2h5.8c2.9,0,4.8-.4,5.8-1.2s1.5-2.3,1.5-4.5V43.19H87.2v23c0,4-1.1,6.8-3.2,8.4s-5.8,2.5-11,2.5H61.5c-6.1,0-10.4-.8-12.7-2.4s-3.5-4.4-3.5-8.5Z"/><path class="cls-1" d="M123.3,55.29h0c0-1.6-.5-2.7-1.4-3.2s-3-.8-6.3-0.8h-6c-3.5,0-5.7.4-6.7,1.3s-1.5,2.6-1.5,5.3v4.7c0,2.4.6,4.1,1.7,5s3.3,1.3,6.6,1.3h5.9a16.68,16.68,0,0,0,6.1-.8,2.8,2.8,0,0,0,1.7-2.8,3.44,3.44,0,0,0-.1-0.9v-0.1h-12v-6.8H134v11c0,3.2-1.2,5.4-3.5,6.7s-6.4,2-12.2,2H106.9a35.31,35.31,0,0,1-7.7-.6,10.18,10.18,0,0,1-4.2-1.9,11.35,11.35,0,0,1-3-3.9,15.06,15.06,0,0,1-1-6v-9.2c0-4.8,1.1-8.1,3.4-10s6.4-2.8,12.4-2.8h11.4a52.69,52.69,0,0,1,8.2.5,8.62,8.62,0,0,1,4.1,1.7,7.29,7.29,0,0,1,2.3,3.3,15.16,15.16,0,0,1,.8,5.1v1.9H123.3Z"/><path class="cls-1" d="M144.8,76.69H133.6l18.3-33.5H165l18,33.5H171.8l-3.3-5.6H148.1Zm7.1-13.6h12.9l-6.5-11.9Z"/><path class="cls-1" d="M212.9,43.19c5.3,0,8.9.8,10.9,2.4s2.9,4.5,2.9,8.6c0,2.9-.4,5.1-1.3,6.5a6.36,6.36,0,0,1-4.3,2.8,7.37,7.37,0,0,1,4,2.2,6.11,6.11,0,0,1,1.3,4.1v6.8H216.1v-5.1a3.37,3.37,0,0,0-.9-2.7c-0.6-.5-1.8-0.7-3.7-0.7H196.3v8.5H186V43.19h26.9Zm-0.4,8.4H196.2v8.2h16.3a3.52,3.52,0,0,0,2.9-1c0.6-.6.8-1.8,0.8-3.5a4,4,0,0,0-.9-2.9,4.25,4.25,0,0,0-2.8-.8"/><polygon class="cls-2" points="349.8 77.29 333 52.49 333.1 77.29 323.1 77.29 323.1 43.79 337.3 43.79 353.2 67.29 353.1 43.79 363.2 43.79 363.2 77.29 349.8 77.29"/><path class="cls-2" d="M316.1,46.19c-2.3-1.9-6.4-2.9-12.4-2.9H291.8c-6,0-10.1.9-12.4,2.9s-3.4,5.3-3.4,10.1v9.1a16.64,16.64,0,0,0,.9,5.9,8.73,8.73,0,0,0,2.9,3.9,11.53,11.53,0,0,0,4.2,1.9,35.94,35.94,0,0,0,7.7.6h11.9a35.31,35.31,0,0,0,7.7-.6,10.18,10.18,0,0,0,4.2-1.9,9.1,9.1,0,0,0,2.9-3.9,16.64,16.64,0,0,0,.9-5.9v-9.1c0.2-4.8-.9-8.2-3.2-10.1m-7,16.8c0,2.4-.6,4.1-1.7,5s-3.3,1.3-6.6,1.3h-6.2c-3.3,0-5.5-.4-6.6-1.3s-1.7-2.6-1.7-5v-4.6c0-2.7.5-4.5,1.5-5.3s3.3-1.3,6.8-1.3h6.2c3.5,0,5.8.4,6.8,1.3s1.5,2.6,1.5,5.3V63h0Z"/><path class="cls-2" d="M262.2,55.89v-0.3a3.24,3.24,0,0,0-1.3-2.9,7.33,7.33,0,0,0-4.1-.9h-8.2c-3.5,0-5.8.4-6.8,1.3s-1.5,2.6-1.5,5.3V63c0,2.4.6,4.1,1.7,5s3.3,1.3,6.6,1.3h5.9c3.2,0,5.4-.3,6.4-1a4.09,4.09,0,0,0,1.5-3.6v-0.4h10.4v0.2a20.34,20.34,0,0,1,.1,2.2,15.56,15.56,0,0,1-.8,5.3,7,7,0,0,1-2.5,3.3,10.4,10.4,0,0,1-4.4,1.7,41.45,41.45,0,0,1-8,.5H245.8a35.31,35.31,0,0,1-7.7-.6,10.18,10.18,0,0,1-4.2-1.9,9.1,9.1,0,0,1-2.9-3.9,16.64,16.64,0,0,1-.9-5.9v-9.1c0-4.8,1.2-8.2,3.4-10.1s6.4-2.9,12.4-2.9h11.4a50.29,50.29,0,0,1,8.1.5,9.08,9.08,0,0,1,4.1,1.7,7.46,7.46,0,0,1,2.4,3.3,15.57,15.57,0,0,1,.7,5.2v1.1a2.2,2.2,0,0,1-.1.8l-10.3.2h0Z"/><path class="cls-1" d="M269.81,33.59a12,12,0,0,1,.82-4.4,11.82,11.82,0,0,1,2.15-3.38,19,19,0,0,1,3-2.76l3.38-2.46c1.13-.82,2.36-1.54,3.48-2.36a25.44,25.44,0,0,0,3.07-2.56,8.54,8.54,0,0,0,2.76-6.35,6.54,6.54,0,0,0-.61-2.87,6.72,6.72,0,0,0-4-3.48A8.83,8.83,0,0,0,281,2.56a7.29,7.29,0,0,0-3.48.72,7.57,7.57,0,0,0-2.36,2,8.76,8.76,0,0,0-1.33,3,9.84,9.84,0,0,0-.31,3.48h-3a16.93,16.93,0,0,1,.61-4.71,10.56,10.56,0,0,1,1.95-3.69A9.31,9.31,0,0,1,276.47.92,11,11,0,0,1,281.18,0a13.68,13.68,0,0,1,4.1.61,11.12,11.12,0,0,1,3.28,1.74,8.46,8.46,0,0,1,2.15,2.87,10.07,10.07,0,0,1,.82,4.1,8.94,8.94,0,0,1-.72,3.79A11.14,11.14,0,0,1,289,16.28a21.79,21.79,0,0,1-2.66,2.66,35.4,35.4,0,0,1-3.17,2.25c-0.82.51-1.74,1.13-2.76,1.74a20.73,20.73,0,0,0-3.07,2.15,21.11,21.11,0,0,0-2.66,2.56,7.06,7.06,0,0,0-1.43,3.07h18.43v2.76H269.81v0.1Z"/><path class="cls-1" d="M313.74,1.74a10.38,10.38,0,0,1,3.48,4.1A18.42,18.42,0,0,1,319,11.37a39.5,39.5,0,0,1,.41,5.94,38.61,38.61,0,0,1-.41,5.94,15.92,15.92,0,0,1-1.74,5.53,11,11,0,0,1-3.48,4,10.43,10.43,0,0,1-5.94,1.54,9.65,9.65,0,0,1-9.32-5.53,18.42,18.42,0,0,1-1.74-5.53,39.5,39.5,0,0,1-.41-5.94,38.61,38.61,0,0,1,.41-5.94,15.92,15.92,0,0,1,1.74-5.53A12.2,12.2,0,0,1,302,1.74,10.31,10.31,0,0,1,307.8.2a10,10,0,0,1,5.94,1.54M303.4,4.2a8.58,8.58,0,0,0-2.56,3.69,24.3,24.3,0,0,0-1.13,4.71,40.21,40.21,0,0,0-.31,4.71,38.87,38.87,0,0,0,.31,4.71,22.63,22.63,0,0,0,1.13,4.71,10.39,10.39,0,0,0,2.56,3.69,6.45,6.45,0,0,0,4.51,1.43,7,7,0,0,0,4.51-1.43A10.39,10.39,0,0,0,315,26.73,17.61,17.61,0,0,0,316.1,22a38.87,38.87,0,0,0,.31-4.71,40.22,40.22,0,0,0-.31-4.71A21.16,21.16,0,0,0,315,7.88a10.39,10.39,0,0,0-2.56-3.69,6.45,6.45,0,0,0-4.51-1.43A6.29,6.29,0,0,0,303.4,4.2"/><path class="cls-1" d="M326.23,6.66A7.92,7.92,0,0,0,329,5.84,4.8,4.8,0,0,0,330.94,4,9.27,9.27,0,0,0,332.07.51h2.46V33.69h-3V9.11h-8.81V6.86c1.23,0,2.36-.1,3.48-0.2"/><path class="cls-1" d="M357.16,4.4a6.68,6.68,0,0,0-4.71-1.74,7.59,7.59,0,0,0-4.71,1.43A9.74,9.74,0,0,0,345,7.78a18.58,18.58,0,0,0-1.33,4.81,41.88,41.88,0,0,0-.31,4.81h0.1a9.89,9.89,0,0,1,8.81-5.53,12.6,12.6,0,0,1,4.51.82A11.32,11.32,0,0,1,360.23,15a11,11,0,0,1,2.15,3.48,12.46,12.46,0,0,1,.82,4.4,13.49,13.49,0,0,1-.82,4.51A10.39,10.39,0,0,1,360,30.93a10.91,10.91,0,0,1-3.58,2.36,12.6,12.6,0,0,1-4.51.82,13.24,13.24,0,0,1-5.22-.92,8.38,8.38,0,0,1-3.58-3A16.67,16.67,0,0,1,341,24.78a45.06,45.06,0,0,1-.72-8.19,25.1,25.1,0,0,1,.1-2.56c0.1-1,.31-2.25.51-3.48a25.94,25.94,0,0,1,1.23-3.69,14.18,14.18,0,0,1,2-3.38A8.92,8.92,0,0,1,347.43,1,10.89,10.89,0,0,1,352,.1a10.78,10.78,0,0,1,7.07,2.15c1.74,1.43,2.76,3.58,3.17,6.55h-3a7.49,7.49,0,0,0-2.15-4.4m-8.5,10.85a6.87,6.87,0,0,0-2.56,1.84,9.41,9.41,0,0,0-1.64,2.76,9.56,9.56,0,0,0-.51,3.48,11.54,11.54,0,0,0,.51,3.28A7.37,7.37,0,0,0,346,29.39a7.81,7.81,0,0,0,2.56,1.84,10.12,10.12,0,0,0,3.79.61,7,7,0,0,0,3.28-.72,7.42,7.42,0,0,0,2.56-1.84,8.25,8.25,0,0,0,1.64-2.76,8.87,8.87,0,0,0,.61-3.28,11.69,11.69,0,0,0-.51-3.38,10.2,10.2,0,0,0-1.54-2.76,6.58,6.58,0,0,0-2.56-1.84,9.05,9.05,0,0,0-3.38-.72,8.07,8.07,0,0,0-3.79.72"/><path class="cls-2" d="M22.77,27.36A8.93,8.93,0,0,1,17.83,34a13.14,13.14,0,0,1-6,1.16,14.42,14.42,0,0,1-4.13-.59A10.31,10.31,0,0,1,4.11,32.7,9.16,9.16,0,0,1,1.6,29.47,10.9,10.9,0,0,1,.65,24.7V21.76H7.39v1.52a12.76,12.76,0,0,0,.19,2.28,4.85,4.85,0,0,0,.66,1.78A3.32,3.32,0,0,0,9.55,28.5a4.73,4.73,0,0,0,2.16.43A4.19,4.19,0,0,0,14,28.4,3,3,0,0,0,15.15,27a5.57,5.57,0,0,0,.43-1.8q0.07-1,.07-1.87V0.49H23.1V23.7A22.41,22.41,0,0,1,22.77,27.36Z"/><path class="cls-2" d="M53.22,31.79q-3.84,3.35-10.63,3.35T31.93,31.82q-3.77-3.32-3.77-10.25V0.49h7.45V21.57a15.32,15.32,0,0,0,.24,2.71,5.26,5.26,0,0,0,3.11,4,8.59,8.59,0,0,0,3.63.64q4,0,5.51-1.78t1.52-5.58V0.49h7.45V21.57Q57.06,28.45,53.22,31.79Z"/><path class="cls-2" d="M69.53,0.49L83.67,23.23h0.09V0.49h7V34.38H83.29L69.19,11.69H69.1V34.38h-7V0.49h7.4Z"/><path class="cls-2" d="M121.29,0.49V6.76H103.39V14h16.42v5.79H103.39v8.31h18.27v6.27H95.94V0.49h25.35Z"/><path class="cls-2" d="M147.83,34.38V12.83h-8.35V7.75a15.91,15.91,0,0,0,3.39-.26,8.84,8.84,0,0,0,2.94-1.09A7.23,7.23,0,0,0,148,4.34a7.34,7.34,0,0,0,1.19-3.18h5.36V34.38h-6.74Z"/><path class="cls-2" d="M174.16,14.59a7.3,7.3,0,0,0,2.3-.55,4.42,4.42,0,0,0,1.76-1.31,3.53,3.53,0,0,0,.69-2.28,4,4,0,0,0-1.42-3.28A5.09,5.09,0,0,0,174.2,6a4.6,4.6,0,0,0-3.87,1.69A6.52,6.52,0,0,0,169.08,12h-6.41a14.14,14.14,0,0,1,.93-4.68,10.68,10.68,0,0,1,2.33-3.63,10.3,10.3,0,0,1,3.58-2.35,12.5,12.5,0,0,1,4.65-.83,13.89,13.89,0,0,1,4,.59,11.38,11.38,0,0,1,3.58,1.78,9.65,9.65,0,0,1,2.59,2.9,7.67,7.67,0,0,1,1,3.94A7.86,7.86,0,0,1,184.15,14a5.83,5.83,0,0,1-3.49,2.52v0.1A7.24,7.24,0,0,1,185,19.24a7.8,7.8,0,0,1,1.57,4.89,10.06,10.06,0,0,1-3.75,8.07,12.05,12.05,0,0,1-3.94,2.09,16,16,0,0,1-9.75-.1,10.7,10.7,0,0,1-3.92-2.35,10.39,10.39,0,0,1-2.49-3.77,13.29,13.29,0,0,1-.83-5.13h6.41a9.55,9.55,0,0,0,.43,2.54,6.24,6.24,0,0,0,1.09,2.09,5.19,5.19,0,0,0,1.78,1.4,5.71,5.71,0,0,0,2.54.52,5.56,5.56,0,0,0,3.84-1.4,4.86,4.86,0,0,0,1.57-3.82,4.83,4.83,0,0,0-.74-2.9,4.24,4.24,0,0,0-1.88-1.45,7.88,7.88,0,0,0-2.49-.52q-1.35-.07-2.59-0.07V14.59A14.1,14.1,0,0,0,174.16,14.59Z"/><path class="cls-2" d="M206.95,18.53v5.79H192.66V18.53h14.29Z"/><path class="cls-2" d="M215.88,34.38V12.83h-8.35V7.75a15.91,15.91,0,0,0,3.39-.26,8.85,8.85,0,0,0,2.94-1.09,7.23,7.23,0,0,0,2.21-2.06,7.35,7.35,0,0,0,1.19-3.18h5.36V34.38h-6.74Z"/><path class="cls-2" d="M246,6.81A3.92,3.92,0,0,0,243,5.57a4.39,4.39,0,0,0-3,1.07,7.79,7.79,0,0,0-1.92,2.61,14.07,14.07,0,0,0-1,3.3,20.81,20.81,0,0,0-.38,3.13l0.1,0.1A8.05,8.05,0,0,1,240,12.93a10.46,10.46,0,0,1,8.45.07,10.44,10.44,0,0,1,3.47,2.49A9.65,9.65,0,0,1,253.83,19a13,13,0,0,1,.62,3.94,13.45,13.45,0,0,1-.83,4.77,11.39,11.39,0,0,1-2.37,3.84,11,11,0,0,1-3.68,2.56,13.21,13.21,0,0,1-11-.57,11.52,11.52,0,0,1-3.94-3.92,16.14,16.14,0,0,1-2-5.48,34.11,34.11,0,0,1-.57-6.24,27.34,27.34,0,0,1,.71-6.17A18,18,0,0,1,233,6.12a12.82,12.82,0,0,1,4-4.06,11,11,0,0,1,6-1.57,12.54,12.54,0,0,1,4,.62,10.26,10.26,0,0,1,3.28,1.78,9.23,9.23,0,0,1,2.33,2.87,11.52,11.52,0,0,1,1.19,3.94h-6.41A5.73,5.73,0,0,0,246,6.81Zm-5.67,10.85A4.71,4.71,0,0,0,238.6,19a5.92,5.92,0,0,0-1,2,8.2,8.2,0,0,0-.33,2.35,7.39,7.39,0,0,0,.36,2.26,6.3,6.3,0,0,0,1,2,5.15,5.15,0,0,0,1.69,1.4,4.83,4.83,0,0,0,2.28.52,4.31,4.31,0,0,0,2.16-.52,5.3,5.3,0,0,0,1.59-1.38,6,6,0,0,0,1-1.95,7.64,7.64,0,0,0,.33-2.23,8.62,8.62,0,0,0-.31-2.3,6.44,6.44,0,0,0-.93-2,4.76,4.76,0,0,0-1.59-1.42,4.53,4.53,0,0,0-2.26-.55A5.29,5.29,0,0,0,240.28,17.65Z"/></svg>