<svg id="Layer_1" data-name="Layer 1" xmlns="http://www.w3.org/2000/svg" viewBox="0 0 363.2 77.69"><defs><style>.cls-1{fill:#fff;}.cls-2{fill:#e81719;}.cls-3{fill:#8f8f8f;}</style></defs><title>sugarcon-logo</title><path class="cls-1" d="M1.1,23.62H11.16v0.6c0,1.29.3,2.19,0.9,2.59a7.77,7.77,0,0,0,3.88.7H28.68a4.45,4.45,0,0,0,2.69-.6,2.55,2.55,0,0,0,.8-2.09,2.65,2.65,0,0,0-.9-2.19,10.56,10.56,0,0,0-4-.9l-16-.4c-4-.1-6.77-0.9-8.16-2.29S1,15.07,1,11.37a19.76,19.76,0,0,1,.5-4.68A7.9,7.9,0,0,1,3.29,3.61a8.59,8.59,0,0,1,3.78-2,31,31,0,0,1,7.87-.7H30.47c3.88,0,6.57.7,8.36,2.09s2.49,3.68,2.49,6.87v0.7a6.79,6.79,0,0,1-.1,1.19H31.47v-0.1a3.72,3.72,0,0,0-.8-2.49,3.72,3.72,0,0,0-2.49-.8H16.34q-3,0-3.88.6a2.25,2.25,0,0,0-.9,2,2.44,2.44,0,0,0,.9,2.09,6.59,6.59,0,0,0,3.19.8l16.73,0.3c3.78,0.1,6.47,1,8.07,2.59s2.29,4.38,2.29,8.26a13.1,13.1,0,0,1-.9,5.38,8.25,8.25,0,0,1-2.89,3.29,8.44,8.44,0,0,1-3.68,1.19,51.61,51.61,0,0,1-6.67.4H15c-5.58,0-9.36-.6-11.15-1.89S1,29.69,1,26.21v-1a7.56,7.56,0,0,0,.1-1.59"/><path class="cls-1" d="M46.21,1.32H56.36V21.13q0,3.44,1.49,4.48c1,0.8,3.29,1.19,6.67,1.19H70.3c2.89,0,4.78-.4,5.78-1.19s1.49-2.29,1.49-4.48V1.32H87.83v22.9c0,4-1.1,6.77-3.19,8.36s-5.78,2.49-11,2.49H62.24c-6.07,0-10.36-.8-12.65-2.39s-3.48-4.38-3.48-8.46Z"/><path class="cls-1" d="M123.77,13.36h0c0-1.59-.5-2.69-1.39-3.19s-3-.8-6.27-0.8h-6c-3.48,0-5.68.4-6.67,1.29S102,13.27,102,16v4.68c0,2.39.6,4.08,1.69,5s3.29,1.29,6.57,1.29h5.87a16.61,16.61,0,0,0,6.07-.8,2.79,2.79,0,0,0,1.69-2.79,3.43,3.43,0,0,0-.1-0.9v-0.1H111.82V15.56h22.6v11c0,3.19-1.19,5.38-3.48,6.67s-6.37,2-12.15,2H107.44a35.16,35.16,0,0,1-7.67-.6,10.14,10.14,0,0,1-4.18-1.89,11.3,11.3,0,0,1-3-3.88,15,15,0,0,1-1-6V13.66c0-4.78,1.1-8.07,3.39-10s6.37-2.79,12.35-2.79h11.35a52.46,52.46,0,0,1,8.16.5,8.58,8.58,0,0,1,4.08,1.69,7.26,7.26,0,0,1,2.29,3.29,15.09,15.09,0,0,1,.8,5.08v1.89H123.77Z"/><path class="cls-1" d="M145.18,34.67H134L152.25,1.32h13l17.92,33.36H172.06l-3.29-5.58H148.46Zm7.07-13.54h12.84L158.62,9.28Z"/><path class="cls-1" d="M213,1.32c5.28,0,8.86.8,10.85,2.39s2.89,4.48,2.89,8.56c0,2.89-.4,5.08-1.29,6.47a6.33,6.33,0,0,1-4.28,2.79,7.34,7.34,0,0,1,4,2.19,6.08,6.08,0,0,1,1.29,4.08v6.77H216.17V29.49a3.36,3.36,0,0,0-.9-2.69c-0.6-.5-1.79-0.7-3.68-0.7H196.46v8.46H186.2V1.32H213Zm-0.4,8.36H196.36v8.16h16.23a3.5,3.5,0,0,0,2.89-1c0.6-.6.8-1.79,0.8-3.48a4,4,0,0,0-.9-2.89,4.23,4.23,0,0,0-2.79-.8"/><polygon class="cls-2" points="349.3 35.27 332.57 10.58 332.67 35.27 322.71 35.27 322.71 1.91 336.85 1.91 352.68 25.31 352.58 1.91 362.64 1.91 362.64 35.27 349.3 35.27"/><path class="cls-2" d="M315.74,4.3c-2.29-1.89-6.37-2.89-12.35-2.89H291.54c-6,0-10.06.9-12.35,2.89s-3.39,5.28-3.39,10.06v9.06a16.57,16.57,0,0,0,.9,5.87,8.69,8.69,0,0,0,2.89,3.88,11.48,11.48,0,0,0,4.18,1.89,35.79,35.79,0,0,0,7.67.6h11.85a35.16,35.16,0,0,0,7.67-.6,10.14,10.14,0,0,0,4.18-1.89A9.06,9.06,0,0,0,318,29.3a16.57,16.57,0,0,0,.9-5.87V14.36c0.2-4.78-.9-8.16-3.19-10.06m-7,16.73c0,2.39-.6,4.08-1.69,5s-3.29,1.29-6.57,1.29h-6.17c-3.29,0-5.48-.4-6.57-1.29s-1.69-2.59-1.69-5V16.45c0-2.69.5-4.48,1.49-5.28s3.29-1.29,6.77-1.29h6.17c3.48,0,5.78.4,6.77,1.29s1.49,2.59,1.49,5.28V21h0Z"/><path class="cls-2" d="M262.07,14v-0.3a3.23,3.23,0,0,0-1.29-2.89,7.3,7.3,0,0,0-4.08-.9h-8.16c-3.48,0-5.78.4-6.77,1.29s-1.49,2.59-1.49,5.28V21c0,2.39.6,4.08,1.69,5s3.29,1.29,6.57,1.29h5.87c3.19,0,5.38-.3,6.37-1a4.07,4.07,0,0,0,1.49-3.58v-0.4h10.36v0.2a20.26,20.26,0,0,1,.1,2.19,15.49,15.49,0,0,1-.8,5.28,7,7,0,0,1-2.49,3.29A10.36,10.36,0,0,1,265.06,35a41.27,41.27,0,0,1-8,.5H245.74a35.16,35.16,0,0,1-7.67-.6A10.14,10.14,0,0,1,233.89,33,9.06,9.06,0,0,1,231,29.11a16.57,16.57,0,0,1-.9-5.87V14.17c0-4.78,1.19-8.16,3.39-10.06s6.37-2.89,12.35-2.89h11.35a50.07,50.07,0,0,1,8.07.5,9,9,0,0,1,4.08,1.69,7.43,7.43,0,0,1,2.39,3.29,15.5,15.5,0,0,1,.7,5.18V13a2.19,2.19,0,0,1-.1.8l-10.26.2h0Z"/><path class="cls-3" d="M4.89,67q0,1.47.11,2.9a7.24,7.24,0,0,0,.65,2.57,4.23,4.23,0,0,0,1.69,1.84,6.15,6.15,0,0,0,3.18.69q3,0,4.26-1.73a8.59,8.59,0,0,0,1.23-5V45.73h2.94V68.35q0,4.54-2.12,6.94t-6.66,2.4a8.74,8.74,0,0,1-4.24-.89,6.45,6.45,0,0,1-2.49-2.38A9.51,9.51,0,0,1,2.25,71,25.74,25.74,0,0,1,2,67H4.89Z"/><path class="cls-3" d="M26.17,45.73h2.94V64.28q0,5.8,2.16,8.35t7,2.55a11.93,11.93,0,0,0,4.26-.67,6.49,6.49,0,0,0,2.83-2,8.51,8.51,0,0,0,1.56-3.4,21.29,21.29,0,0,0,.48-4.8V45.73H50.3V65.15q0,6.1-3,9.32t-9.06,3.22q-6.1,0-9.08-3.29t-3-9.26V45.73Z"/><path class="cls-3" d="M60.3,49.71H60.21V76.87H57.27V45.73H60.6l18,27.2h0.09V45.73h2.94V76.87H78.2Z"/><path class="cls-3" d="M88.58,76.87V45.73H109.3v2.51H91.52V59.48h16V62h-16V74.36h18.21v2.51H88.58Z"/><path class="cls-3" d="M135.4,54.21h-7.87V52.39q1.73-.13,3.14-0.35a7.12,7.12,0,0,0,2.47-.82,5,5,0,0,0,1.77-1.75A8.78,8.78,0,0,0,136,46.38h2.21V76.87H135.4V54.21Z"/><path class="cls-3" d="M155.94,59.92a24.37,24.37,0,0,0,3.55-.24,7.63,7.63,0,0,0,2.75-.91A4.86,4.86,0,0,0,164,57a5.73,5.73,0,0,0,.65-2.9,5.32,5.32,0,0,0-.52-2.44A4.67,4.67,0,0,0,162.75,50a6,6,0,0,0-2.08-1,10.06,10.06,0,0,0-2.49-.3,7.1,7.1,0,0,0-2.66.47,5.89,5.89,0,0,0-2.06,1.36,6.27,6.27,0,0,0-1.34,2.07,7,7,0,0,0-.48,2.62h-2.77a9.4,9.4,0,0,1,.71-3.74,9.29,9.29,0,0,1,2.23-3.09,6.73,6.73,0,0,1,3.22-1.66,18.36,18.36,0,0,1,3.7-.37,12.18,12.18,0,0,1,3.39.45,7.81,7.81,0,0,1,2.75,1.38,6.7,6.7,0,0,1,1.86,2.36,7.55,7.55,0,0,1,.69,3.33A7.72,7.72,0,0,1,166.38,58a6.86,6.86,0,0,1-3.27,2.68,8.3,8.3,0,0,1,2.7,1.36,6.92,6.92,0,0,1,1.67,1.86,6.68,6.68,0,0,1,.82,2.14,11.56,11.56,0,0,1,.21,2.16,9.58,9.58,0,0,1-.65,3.55,8.46,8.46,0,0,1-1.91,2.9,9.3,9.3,0,0,1-3.09,2,11.46,11.46,0,0,1-4.17.8,19.48,19.48,0,0,1-4.58-.48,7.76,7.76,0,0,1-3.24-1.58,7.4,7.4,0,0,1-2-2.9,15.93,15.93,0,0,1-1-4.48h2.77a6.59,6.59,0,0,0,2.1,5.3,8.12,8.12,0,0,0,5.47,1.8,8.31,8.31,0,0,0,3.07-.56,7.61,7.61,0,0,0,2.44-1.51,6.57,6.57,0,0,0,1.56-2.21,6,6,0,0,0,.5-2.59,6.28,6.28,0,0,0-.87-3.09,5.55,5.55,0,0,0-2.1-1.95,9,9,0,0,0-3.09-1,19.08,19.08,0,0,0-3.76-.11V59.92Z"/><path class="cls-3" d="M192,64.28V67H181V64.28H192Z"/><path class="cls-3" d="M206.24,54.21h-7.87V52.39q1.73-.13,3.14-0.35a7.12,7.12,0,0,0,2.46-.82,5,5,0,0,0,1.77-1.75,8.78,8.78,0,0,0,1.06-3.09H209V76.87h-2.77V54.21Z"/><path class="cls-3" d="M236.13,53.86a7.08,7.08,0,0,0-1.9-3.74,5.31,5.31,0,0,0-3.89-1.41,6.75,6.75,0,0,0-4.43,1.34,8.72,8.72,0,0,0-2.49,3.4,16.82,16.82,0,0,0-1.17,4.48q-0.3,2.42-.48,4.58,0.65-.86,1.36-1.73a9.12,9.12,0,0,1,1.62-1.54,7.72,7.72,0,0,1,2.12-1.08,9.06,9.06,0,0,1,2.9-.41,9.5,9.5,0,0,1,7.16,2.62,9.93,9.93,0,0,1,2.53,7.2,10,10,0,0,1-2.55,7.27q-2.55,2.64-7.22,2.64a11.6,11.6,0,0,1-4.24-.76,8.16,8.16,0,0,1-3.37-2.49,12.63,12.63,0,0,1-2.25-4.52A24.39,24.39,0,0,1,219,62.9a35.12,35.12,0,0,1,.48-5.64,18.13,18.13,0,0,1,1.71-5.34,11,11,0,0,1,3.37-4,9.14,9.14,0,0,1,5.51-1.56,9.5,9.5,0,0,1,6.05,1.9A7.92,7.92,0,0,1,239,53.86h-2.85Zm-6.44,6.23a6.61,6.61,0,0,0-2.88.61,6.43,6.43,0,0,0-2.16,1.64,7.42,7.42,0,0,0-1.36,2.4,8.8,8.8,0,0,0-.48,2.92,9.75,9.75,0,0,0,.37,2.62,6.85,6.85,0,0,0,1.21,2.4,6.62,6.62,0,0,0,2.14,1.77,6.74,6.74,0,0,0,3.2.69,7.14,7.14,0,0,0,3.26-.67,6,6,0,0,0,2.14-1.77,7.26,7.26,0,0,0,1.19-2.46,10.54,10.54,0,0,0,.37-2.75A8,8,0,0,0,235,62Q233.27,60.09,229.68,60.09Z"/><path class="cls-1" d="M271.31,56.37a11.52,11.52,0,0,1,.69-4.09,8.91,8.91,0,0,1,2-3.16,8.8,8.8,0,0,1,3.13-2,12.3,12.3,0,0,1,8.13,0,8.78,8.78,0,0,1,2.94,1.8,7.3,7.3,0,0,1,1.8,2.68,9.58,9.58,0,0,1-.07,6.88,9.85,9.85,0,0,1-1.77,2.77,13.9,13.9,0,0,1-2.51,2.16q-1.4,1-2.88,1.8t-2.9,1.62a19.23,19.23,0,0,0-2.55,1.64q-0.74.56-1.43,1.19a10.24,10.24,0,0,0-1.25,1.36,6.63,6.63,0,0,0-.91,1.62,6,6,0,0,0-.39,2h17v2.34H270.4a18.38,18.38,0,0,1,.47-4,8.3,8.3,0,0,1,1.9-3.46,22.79,22.79,0,0,1,3.31-3.11q1.71-1.3,3.35-2.31t3.11-1.86a15.69,15.69,0,0,0,2.59-1.84,7.73,7.73,0,0,0,1.77-2.25,6.63,6.63,0,0,0,.65-3.07,6.45,6.45,0,0,0-.52-2.64,5.85,5.85,0,0,0-1.43-2,6,6,0,0,0-2.12-1.23,8.16,8.16,0,0,0-2.64-.41,6,6,0,0,0-2.75.63A6.82,6.82,0,0,0,276,51a7.35,7.35,0,0,0-1.36,2.42,7.65,7.65,0,0,0-.39,2.94h-2.94Z"/><path class="cls-1" d="M304.39,46.38a10.28,10.28,0,0,1,3.89.67,8.17,8.17,0,0,1,2.79,1.84,9.53,9.53,0,0,1,1.86,2.72,16.67,16.67,0,0,1,1.1,3.31,24.55,24.55,0,0,1,.52,3.61q0.13,1.86.13,3.63a37.63,37.63,0,0,1-.43,5.8,15.12,15.12,0,0,1-1.58,4.89,8.93,8.93,0,0,1-3.13,3.37,9.51,9.51,0,0,1-5.15,1.25,9.62,9.62,0,0,1-5.17-1.25,8.83,8.83,0,0,1-3.16-3.4,15.37,15.37,0,0,1-1.58-5,39.65,39.65,0,0,1-.43-6,40.47,40.47,0,0,1,.39-5.66,15.79,15.79,0,0,1,1.49-5,9,9,0,0,1,3.14-3.52A9.51,9.51,0,0,1,304.39,46.38Zm7.53,15.48a40.68,40.68,0,0,0-.28-4.82,14.71,14.71,0,0,0-1.1-4.22,7.4,7.4,0,0,0-2.31-3,6.35,6.35,0,0,0-3.91-1.12,5.85,5.85,0,0,0-3.74,1.15,7.67,7.67,0,0,0-2.27,3,16.36,16.36,0,0,0-1.15,4.33,37.18,37.18,0,0,0-.32,4.93,35.39,35.39,0,0,0,.37,5.34,13.33,13.33,0,0,0,1.23,4.09,6.17,6.17,0,0,0,6,3.55,6.09,6.09,0,0,0,4-1.21,7.65,7.65,0,0,0,2.27-3.11,15.81,15.81,0,0,0,1-4.28A43.12,43.12,0,0,0,311.92,61.86Z"/><path class="cls-1" d="M329.47,54.21H321.6V52.39q1.73-.13,3.14-0.35a7.12,7.12,0,0,0,2.46-.82A5,5,0,0,0,329,49.47,8.78,8.78,0,0,0,330,46.38h2.21V76.87h-2.77V54.21Z"/><path class="cls-1" d="M359.36,53.86a7.08,7.08,0,0,0-1.9-3.74,5.31,5.31,0,0,0-3.89-1.41,6.75,6.75,0,0,0-4.43,1.34,8.72,8.72,0,0,0-2.49,3.4,16.82,16.82,0,0,0-1.17,4.48q-0.3,2.42-.48,4.58,0.65-.86,1.36-1.73A9.12,9.12,0,0,1,348,59.24a7.72,7.72,0,0,1,2.12-1.08,9.06,9.06,0,0,1,2.9-.41,9.5,9.5,0,0,1,7.16,2.62,9.93,9.93,0,0,1,2.53,7.2,10,10,0,0,1-2.55,7.27q-2.55,2.64-7.22,2.64a11.6,11.6,0,0,1-4.24-.76,8.16,8.16,0,0,1-3.37-2.49,12.63,12.63,0,0,1-2.25-4.52,24.39,24.39,0,0,1-.82-6.81,35.12,35.12,0,0,1,.48-5.64,18.13,18.13,0,0,1,1.71-5.34,11,11,0,0,1,3.37-4,9.14,9.14,0,0,1,5.51-1.56,9.5,9.5,0,0,1,6.05,1.9,7.92,7.92,0,0,1,2.85,5.58h-2.85Zm-6.44,6.23a6.61,6.61,0,0,0-2.88.61,6.43,6.43,0,0,0-2.16,1.64,7.42,7.42,0,0,0-1.36,2.4,8.8,8.8,0,0,0-.48,2.92,9.75,9.75,0,0,0,.37,2.62,6.85,6.85,0,0,0,1.21,2.4,6.62,6.62,0,0,0,2.14,1.77,6.74,6.74,0,0,0,3.2.69,7.14,7.14,0,0,0,3.26-.67,6,6,0,0,0,2.14-1.77,7.26,7.26,0,0,0,1.19-2.46,10.54,10.54,0,0,0,.37-2.75A8,8,0,0,0,358.21,62Q356.51,60.09,352.92,60.09Z"/></svg>