<svg id="Layer_1" data-name="Layer 1" xmlns="http://www.w3.org/2000/svg" viewBox="0 0 470.33 34.9"><defs><style>.cls-1{fill:#fff;}.cls-2{fill:#e81719;}.cls-3{fill:#c4c4c4;}</style></defs><title>sugarcon-logo-mobile</title><path class="cls-1" d="M0.1,22.8H10.2v0.6c0,1.3.3,2.2,0.9,2.6s1.9,0.7,3.9.7H27.8a4.47,4.47,0,0,0,2.7-.6,2.56,2.56,0,0,0,.8-2.1,2.66,2.66,0,0,0-.9-2.2,10.61,10.61,0,0,0-4-.9l-16.1-.4c-4-.1-6.8-0.9-8.2-2.3S0,14.2,0,10.5A19.85,19.85,0,0,1,.5,5.8,7.93,7.93,0,0,1,2.3,2.7,8.63,8.63,0,0,1,6.1.7,31.17,31.17,0,0,1,14,0H29.6c3.9,0,6.6.7,8.4,2.1S40.5,5.8,40.5,9V9.7a6.82,6.82,0,0,1-.1,1.2H30.6V10.8a3.74,3.74,0,0,0-.8-2.5,3.74,3.74,0,0,0-2.5-.8H15.4q-3,0-3.9.6a2.26,2.26,0,0,0-.9,2,2.45,2.45,0,0,0,.9,2.1,6.62,6.62,0,0,0,3.2.8l16.8,0.3c3.8,0.1,6.5,1,8.1,2.6s2.3,4.4,2.3,8.3a13.16,13.16,0,0,1-.9,5.4,8.29,8.29,0,0,1-2.9,3.3,8.48,8.48,0,0,1-3.7,1.2,51.83,51.83,0,0,1-6.7.4H14.1c-5.6,0-9.4-.6-11.2-1.9S0,28.9,0,25.4v-1a7.59,7.59,0,0,0,.1-1.6"/><path class="cls-1" d="M45.4,0.4H55.6V20.3q0,3.45,1.5,4.5c1,0.8,3.3,1.2,6.7,1.2h5.8c2.9,0,4.8-.4,5.8-1.2s1.5-2.3,1.5-4.5V0.4H87.2v23c0,4-1.1,6.8-3.2,8.4s-5.8,2.5-11,2.5H61.5c-6.1,0-10.4-.8-12.7-2.4s-3.5-4.4-3.5-8.5Z"/><path class="cls-1" d="M123.3,12.5h0c0-1.6-.5-2.7-1.4-3.2s-3-.8-6.3-0.8h-6c-3.5,0-5.7.4-6.7,1.3s-1.5,2.6-1.5,5.3v4.7c0,2.4.6,4.1,1.7,5s3.3,1.3,6.6,1.3h5.9a16.68,16.68,0,0,0,6.1-.8,2.8,2.8,0,0,0,1.7-2.8,3.44,3.44,0,0,0-.1-0.9V21.5h-12V14.7H134v11c0,3.2-1.2,5.4-3.5,6.7s-6.4,2-12.2,2H106.9a35.31,35.31,0,0,1-7.7-.6A10.18,10.18,0,0,1,95,31.9,11.35,11.35,0,0,1,92,28a15.06,15.06,0,0,1-1-6V12.8c0-4.8,1.1-8.1,3.4-10S100.8,0,106.8,0h11.4a52.69,52.69,0,0,1,8.2.5,8.62,8.62,0,0,1,4.1,1.7,7.29,7.29,0,0,1,2.3,3.3,15.16,15.16,0,0,1,.8,5.1v1.9H123.3Z"/><path class="cls-1" d="M144.8,33.9H133.6L151.9,0.4H165l18,33.5H171.8l-3.3-5.6H148.1Zm7.1-13.6h12.9L158.3,8.4Z"/><path class="cls-1" d="M212.9,0.4c5.3,0,8.9.8,10.9,2.4s2.9,4.5,2.9,8.6c0,2.9-.4,5.1-1.3,6.5a6.36,6.36,0,0,1-4.3,2.8,7.37,7.37,0,0,1,4,2.2,6.11,6.11,0,0,1,1.3,4.1v6.8H216.1V28.7a3.37,3.37,0,0,0-.9-2.7c-0.6-.5-1.8-0.7-3.7-0.7H196.3v8.5H186V0.4h26.9Zm-0.4,8.4H196.2V17h16.3a3.52,3.52,0,0,0,2.9-1c0.6-.6.8-1.8,0.8-3.5a4,4,0,0,0-.9-2.9,4.25,4.25,0,0,0-2.8-.8"/><polygon class="cls-2" points="349.8 34.5 333 9.7 333.1 34.5 323.1 34.5 323.1 1 337.3 1 353.2 24.5 353.1 1 363.2 1 363.2 34.5 349.8 34.5"/><path class="cls-2" d="M316.1,3.4c-2.3-1.9-6.4-2.9-12.4-2.9H291.8c-6,0-10.1.9-12.4,2.9S276,8.7,276,13.5v9.1a16.64,16.64,0,0,0,.9,5.9,8.73,8.73,0,0,0,2.9,3.9,11.53,11.53,0,0,0,4.2,1.9,35.94,35.94,0,0,0,7.7.6h11.9a35.31,35.31,0,0,0,7.7-.6,10.18,10.18,0,0,0,4.2-1.9,9.1,9.1,0,0,0,2.9-3.9,16.64,16.64,0,0,0,.9-5.9V13.5c0.2-4.8-.9-8.2-3.2-10.1m-7,16.8c0,2.4-.6,4.1-1.7,5s-3.3,1.3-6.6,1.3h-6.2c-3.3,0-5.5-.4-6.6-1.3s-1.7-2.6-1.7-5V15.6c0-2.7.5-4.5,1.5-5.3S291.1,9,294.6,9h6.2c3.5,0,5.8.4,6.8,1.3s1.5,2.6,1.5,5.3v4.6h0Z"/><path class="cls-2" d="M262.2,13.1V12.8a3.24,3.24,0,0,0-1.3-2.9,7.33,7.33,0,0,0-4.1-.9h-8.2c-3.5,0-5.8.4-6.8,1.3s-1.5,2.6-1.5,5.3v4.6c0,2.4.6,4.1,1.7,5s3.3,1.3,6.6,1.3h5.9c3.2,0,5.4-.3,6.4-1a4.09,4.09,0,0,0,1.5-3.6V21.5h10.4v0.2a20.34,20.34,0,0,1,.1,2.2,15.56,15.56,0,0,1-.8,5.3,7,7,0,0,1-2.5,3.3,10.4,10.4,0,0,1-4.4,1.7,41.45,41.45,0,0,1-8,.5H245.8a35.31,35.31,0,0,1-7.7-.6,10.18,10.18,0,0,1-4.2-1.9,9.1,9.1,0,0,1-2.9-3.9,16.64,16.64,0,0,1-.9-5.9V13.3c0-4.8,1.2-8.2,3.4-10.1s6.4-2.9,12.4-2.9h11.4a50.29,50.29,0,0,1,8.1.5,9.08,9.08,0,0,1,4.1,1.7,7.46,7.46,0,0,1,2.4,3.3,15.57,15.57,0,0,1,.7,5.2v1.1a2.2,2.2,0,0,1-.1.8l-10.3.2h0Z"/><path class="cls-3" d="M372.7,33.8a11.76,11.76,0,0,1,.8-4.3,11.55,11.55,0,0,1,2.1-3.3,18.57,18.57,0,0,1,2.9-2.7l3.3-2.4c1.1-.8,2.3-1.5,3.4-2.3a24.84,24.84,0,0,0,3-2.5,8.34,8.34,0,0,0,2.7-6.2,6.39,6.39,0,0,0-.6-2.8,6.56,6.56,0,0,0-3.9-3.4,8.63,8.63,0,0,0-2.8-.4,7.12,7.12,0,0,0-3.4.7,7.4,7.4,0,0,0-2.3,2,8.55,8.55,0,0,0-1.3,2.9,9.61,9.61,0,0,0-.3,3.4h-2.9a16.53,16.53,0,0,1,.6-4.6,10.31,10.31,0,0,1,1.9-3.6,9.09,9.09,0,0,1,3.3-2.4,10.78,10.78,0,0,1,4.6-.9,13.36,13.36,0,0,1,4,.6A10.86,10.86,0,0,1,391,3.3a8.26,8.26,0,0,1,2.1,2.8,9.83,9.83,0,0,1,.8,4,8.73,8.73,0,0,1-.7,3.7,10.88,10.88,0,0,1-1.8,3.1,21.28,21.28,0,0,1-2.6,2.6,34.57,34.57,0,0,1-3.1,2.2c-0.8.5-1.7,1.1-2.7,1.7a20.25,20.25,0,0,0-3,2.1,20.62,20.62,0,0,0-2.6,2.5,6.89,6.89,0,0,0-1.4,3h18v2.7H372.7v0.1Z"/><path class="cls-3" d="M416.6,2.7a10.14,10.14,0,0,1,3.4,4,18,18,0,0,1,1.7,5.4,38.57,38.57,0,0,1,.4,5.8,37.7,37.7,0,0,1-.4,5.8,15.55,15.55,0,0,1-1.7,5.4,10.7,10.7,0,0,1-3.4,3.9,10.19,10.19,0,0,1-5.8,1.5,9.42,9.42,0,0,1-9.1-5.4,18,18,0,0,1-1.7-5.4,38.58,38.58,0,0,1-.4-5.8,37.7,37.7,0,0,1,.4-5.8,15.55,15.55,0,0,1,1.7-5.4,11.91,11.91,0,0,1,3.4-4,10.07,10.07,0,0,1,5.7-1.5,9.76,9.76,0,0,1,5.8,1.5M406.5,5.1A8.38,8.38,0,0,0,404,8.7a23.73,23.73,0,0,0-1.1,4.6,39.27,39.27,0,0,0-.3,4.6,38,38,0,0,0,.3,4.6,22.1,22.1,0,0,0,1.1,4.6,10.14,10.14,0,0,0,2.5,3.6,6.3,6.3,0,0,0,4.4,1.4,6.82,6.82,0,0,0,4.4-1.4,10.14,10.14,0,0,0,2.5-3.6,17.2,17.2,0,0,0,1.1-4.6,38,38,0,0,0,.3-4.6,39.28,39.28,0,0,0-.3-4.6,20.67,20.67,0,0,0-1.1-4.6,10.14,10.14,0,0,0-2.5-3.6,6.3,6.3,0,0,0-4.4-1.4,6.14,6.14,0,0,0-4.4,1.4"/><path class="cls-3" d="M429.8,7.5a7.73,7.73,0,0,0,2.7-.8,4.69,4.69,0,0,0,1.9-1.8,9.05,9.05,0,0,0,1.1-3.4h2.4V33.9H435V9.9h-8.6V7.7c1.2,0,2.3-.1,3.4-0.2"/><path class="cls-3" d="M462,5.3a6.52,6.52,0,0,0-4.6-1.7A7.41,7.41,0,0,0,452.8,5a9.51,9.51,0,0,0-2.7,3.6,18.14,18.14,0,0,0-1.3,4.7,40.89,40.89,0,0,0-.3,4.7h0.1a9.66,9.66,0,0,1,8.6-5.4,12.31,12.31,0,0,1,4.4.8,11.05,11.05,0,0,1,3.4,2.2,10.78,10.78,0,0,1,2.1,3.4,12.17,12.17,0,0,1,.8,4.3,13.17,13.17,0,0,1-.8,4.4,10.14,10.14,0,0,1-2.3,3.5,10.65,10.65,0,0,1-3.5,2.3,12.31,12.31,0,0,1-4.4.8,12.93,12.93,0,0,1-5.1-.9,8.19,8.19,0,0,1-3.5-2.9,16.28,16.28,0,0,1-2.1-5.3,44,44,0,0,1-.7-8,24.51,24.51,0,0,1,.1-2.5c0.1-1,.3-2.2.5-3.4a25.33,25.33,0,0,1,1.2-3.6,13.85,13.85,0,0,1,2-3.3A8.71,8.71,0,0,1,452.5,2a10.63,10.63,0,0,1,4.5-.9,10.53,10.53,0,0,1,6.9,2.1c1.7,1.4,2.7,3.5,3.1,6.4h-2.9A7.32,7.32,0,0,0,462,5.3m-8.3,10.6a6.71,6.71,0,0,0-2.5,1.8,9.19,9.19,0,0,0-1.6,2.7,9.34,9.34,0,0,0-.5,3.4,11.27,11.27,0,0,0,.5,3.2,7.2,7.2,0,0,0,1.5,2.7,7.63,7.63,0,0,0,2.5,1.8,9.88,9.88,0,0,0,3.7.6,6.83,6.83,0,0,0,3.2-.7,7.25,7.25,0,0,0,2.5-1.8,8.06,8.06,0,0,0,1.6-2.7,8.66,8.66,0,0,0,.6-3.2,11.42,11.42,0,0,0-.5-3.3,10,10,0,0,0-1.5-2.7,6.42,6.42,0,0,0-2.5-1.8,8.84,8.84,0,0,0-3.3-.7,7.88,7.88,0,0,0-3.7.7"/></svg>