<svg id="Layer_1" data-name="Layer 1" xmlns="http://www.w3.org/2000/svg" viewBox="0 0 363.25 59.02"><defs><style>.cls-1{fill:#fff;}.cls-2{fill:#e81719;}</style></defs><title>sugarcon-logo</title><path class="cls-1" d="M2.44,55.41a3.47,3.47,0,0,0,1.14,1.36,4.76,4.76,0,0,0,1.72.73,9.78,9.78,0,0,0,2.12.22,6,6,0,0,0,1.41-.19,4.87,4.87,0,0,0,1.42-.59,3.61,3.61,0,0,0,1.1-1,2.62,2.62,0,0,0,.44-1.53,2.25,2.25,0,0,0-.31-1.2,2.87,2.87,0,0,0-.81-0.85,4.79,4.79,0,0,0-1.1-.56,10.55,10.55,0,0,0-1.18-.36l-3.66-.9A10.82,10.82,0,0,1,3.33,50a4,4,0,0,1-1.19-.74,3.46,3.46,0,0,1-.82-1.13A3.84,3.84,0,0,1,1,46.54a5.22,5.22,0,0,1,.23-1.41,3.9,3.9,0,0,1,.86-1.52A5,5,0,0,1,3.85,42.4a7,7,0,0,1,2.84-.5A8.25,8.25,0,0,1,9,42.23a5.76,5.76,0,0,1,1.94,1,4.83,4.83,0,0,1,1.33,1.6,4.78,4.78,0,0,1,.5,2.22H11.2a3.81,3.81,0,0,0-.43-1.65,3.69,3.69,0,0,0-1-1.17,4.35,4.35,0,0,0-1.41-.71,5.71,5.71,0,0,0-1.67-.24,6.82,6.82,0,0,0-1.55.17A3.88,3.88,0,0,0,3.84,44a2.85,2.85,0,0,0-.91,1,3.15,3.15,0,0,0-.35,1.55,2.36,2.36,0,0,0,.2,1,2.11,2.11,0,0,0,.54.73,2.81,2.81,0,0,0,.8.48,5.87,5.87,0,0,0,1,.3l4,1a11.7,11.7,0,0,1,1.65.56,5.46,5.46,0,0,1,1.36.83A3.5,3.5,0,0,1,13,52.62a4.05,4.05,0,0,1,.33,1.73,6.07,6.07,0,0,1-.06.74,3.66,3.66,0,0,1-.28,1,4.92,4.92,0,0,1-.62,1,3.87,3.87,0,0,1-1.11,1,6.39,6.39,0,0,1-1.74.69A10.2,10.2,0,0,1,7,59a10.34,10.34,0,0,1-2.69-.33,5.79,5.79,0,0,1-2.12-1A4.53,4.53,0,0,1,.89,55.89a5.83,5.83,0,0,1-.4-2.6H2.05A4.62,4.62,0,0,0,2.44,55.41Z"/><path class="cls-1" d="M22.39,42.25L28.84,58.7H27.16l-2-5.12H17.67l-2,5.12H14l6.61-16.45h1.75Zm2.24,10-3.18-8.43-3.29,8.43h6.47Z"/><path class="cls-1" d="M32.07,42.25l9.59,13.92h0V42.25h1.57V58.7H41.52L31.93,44.78h0V58.7H30.32V42.25h1.75Z"/><path class="cls-1" d="M63.41,42.25v1.34H54.53v5.94h7.88v1.34H54.53V58.7H53V42.25H63.41Z"/><path class="cls-1" d="M72.88,42.25a7.08,7.08,0,0,1,1.92.26,4.67,4.67,0,0,1,1.59.77,3.73,3.73,0,0,1,1.08,1.34,4.29,4.29,0,0,1,.4,1.92,4.62,4.62,0,0,1-.81,2.72,3.67,3.67,0,0,1-2.4,1.47v0A3.67,3.67,0,0,1,76,51.2a2.71,2.71,0,0,1,.86.8,3.26,3.26,0,0,1,.48,1.12,8.18,8.18,0,0,1,.2,1.37c0,0.28,0,.62,0,1s0,0.8.09,1.21a7.37,7.37,0,0,0,.22,1.15,2.19,2.19,0,0,0,.4.84H76.58a2,2,0,0,1-.22-0.56,4.84,4.84,0,0,1-.12-0.69c0-.24,0-0.47-0.06-0.7s0-.43,0-0.6c0-.58-0.08-1.16-0.15-1.74a4.76,4.76,0,0,0-.44-1.54,2.7,2.7,0,0,0-1-1.1,2.91,2.91,0,0,0-1.74-.37H66.91v7.3H65.34V42.25h7.53Zm-0.12,7.81a4.19,4.19,0,0,0,1.36-.22,3.34,3.34,0,0,0,1.13-.63,3.07,3.07,0,0,0,.77-1,3,3,0,0,0,.29-1.35,3.24,3.24,0,0,0-.88-2.4,3.64,3.64,0,0,0-2.67-.88H66.91v6.47h5.85Z"/><path class="cls-1" d="M87.28,42.25L93.73,58.7H92l-2-5.12H82.55l-2,5.12H78.91l6.61-16.45h1.75Zm2.24,10-3.18-8.43L83,52.25h6.47Z"/><path class="cls-1" d="M97,42.25l9.59,13.92h0V42.25h1.57V58.7H106.4L96.81,44.78h0V58.7H95.2V42.25H97Z"/><path class="cls-1" d="M122.79,45.53a4.62,4.62,0,0,0-1.15-1.25,5.14,5.14,0,0,0-1.5-.77,5.54,5.54,0,0,0-1.72-.26,5.91,5.91,0,0,0-2.81.62,5.57,5.57,0,0,0-1.92,1.65,7.11,7.11,0,0,0-1.11,2.32,10,10,0,0,0,0,5.29,7.08,7.08,0,0,0,1.11,2.33,5.55,5.55,0,0,0,1.92,1.65,5.94,5.94,0,0,0,2.81.62,5,5,0,0,0,2.07-.42,4.92,4.92,0,0,0,1.59-1.13,5.8,5.8,0,0,0,1.08-1.67,6.91,6.91,0,0,0,.53-2.06h1.57a9,9,0,0,1-.71,2.74,6.76,6.76,0,0,1-1.43,2.07,6.09,6.09,0,0,1-2.06,1.31,7.23,7.23,0,0,1-2.64.46,7.76,7.76,0,0,1-3.4-.7,7,7,0,0,1-2.43-1.88,8,8,0,0,1-1.45-2.72,11.15,11.15,0,0,1,0-6.5,8.12,8.12,0,0,1,1.45-2.73A7,7,0,0,1,115,42.61a8.24,8.24,0,0,1,5.69-.36,6.68,6.68,0,0,1,2,1,6,6,0,0,1,1.52,1.67,5.64,5.64,0,0,1,.77,2.28h-1.57A5.33,5.33,0,0,0,122.79,45.53Z"/><path class="cls-1" d="M129.35,42.25V58.7h-1.57V42.25h1.57Z"/><path class="cls-1" d="M133.91,55.41A3.47,3.47,0,0,0,135,56.77a4.76,4.76,0,0,0,1.72.73,9.78,9.78,0,0,0,2.12.22,6,6,0,0,0,1.41-.19,4.87,4.87,0,0,0,1.42-.59,3.61,3.61,0,0,0,1.1-1,2.62,2.62,0,0,0,.44-1.53,2.25,2.25,0,0,0-.31-1.2,2.87,2.87,0,0,0-.81-0.85,4.79,4.79,0,0,0-1.1-.56,10.55,10.55,0,0,0-1.18-.36l-3.66-.9A10.82,10.82,0,0,1,134.8,50a4,4,0,0,1-1.19-.74,3.46,3.46,0,0,1-.82-1.13,3.84,3.84,0,0,1-.31-1.64,5.22,5.22,0,0,1,.23-1.41,3.9,3.9,0,0,1,.86-1.52,5,5,0,0,1,1.74-1.21,7,7,0,0,1,2.84-.5,8.25,8.25,0,0,1,2.33.32,5.76,5.76,0,0,1,1.94,1,4.83,4.83,0,0,1,1.33,1.6,4.78,4.78,0,0,1,.5,2.22h-1.57a3.81,3.81,0,0,0-.43-1.65,3.69,3.69,0,0,0-1-1.17,4.35,4.35,0,0,0-1.41-.71,5.71,5.71,0,0,0-1.67-.24,6.82,6.82,0,0,0-1.55.17,3.88,3.88,0,0,0-1.31.55,2.85,2.85,0,0,0-.91,1,3.15,3.15,0,0,0-.35,1.55,2.36,2.36,0,0,0,.2,1,2.11,2.11,0,0,0,.54.73,2.81,2.81,0,0,0,.8.48,5.87,5.87,0,0,0,1,.3l4,1a11.7,11.7,0,0,1,1.65.56,5.46,5.46,0,0,1,1.36.83,3.5,3.5,0,0,1,.92,1.21,4.05,4.05,0,0,1,.33,1.73,6.07,6.07,0,0,1-.06.74,3.66,3.66,0,0,1-.28,1,4.92,4.92,0,0,1-.62,1,3.87,3.87,0,0,1-1.11,1,6.39,6.39,0,0,1-1.74.69,10.2,10.2,0,0,1-2.49.26,10.34,10.34,0,0,1-2.69-.33,5.79,5.79,0,0,1-2.12-1,4.53,4.53,0,0,1-1.35-1.77,5.83,5.83,0,0,1-.4-2.6h1.57A4.62,4.62,0,0,0,133.91,55.41Z"/><path class="cls-1" d="M158.64,45.53a4.62,4.62,0,0,0-1.15-1.25,5.14,5.14,0,0,0-1.5-.77,5.54,5.54,0,0,0-1.72-.26,5.91,5.91,0,0,0-2.81.62,5.57,5.57,0,0,0-1.92,1.65,7.11,7.11,0,0,0-1.11,2.32,10,10,0,0,0,0,5.29,7.08,7.08,0,0,0,1.11,2.33,5.55,5.55,0,0,0,1.92,1.65,5.94,5.94,0,0,0,2.81.62,5,5,0,0,0,2.07-.42,4.92,4.92,0,0,0,1.59-1.13A5.8,5.8,0,0,0,159,54.5a6.91,6.91,0,0,0,.53-2.06h1.57a9,9,0,0,1-.71,2.74A6.76,6.76,0,0,1,159,57.25a6.09,6.09,0,0,1-2.06,1.31,7.23,7.23,0,0,1-2.64.46,7.76,7.76,0,0,1-3.4-.7,7,7,0,0,1-2.43-1.88A8,8,0,0,1,147,53.72a11.15,11.15,0,0,1,0-6.5,8.12,8.12,0,0,1,1.45-2.73,7,7,0,0,1,2.43-1.89,8.24,8.24,0,0,1,5.69-.36,6.68,6.68,0,0,1,2,1,6,6,0,0,1,1.52,1.67,5.64,5.64,0,0,1,.77,2.28h-1.57A5.33,5.33,0,0,0,158.64,45.53Z"/><path class="cls-1" d="M163.12,47.23a8.12,8.12,0,0,1,1.45-2.73A7,7,0,0,1,167,42.61a7.76,7.76,0,0,1,3.4-.7,7.68,7.68,0,0,1,3.39.7,7,7,0,0,1,2.42,1.89,8.12,8.12,0,0,1,1.45,2.73,11.15,11.15,0,0,1,0,6.5,8,8,0,0,1-1.45,2.72,7.08,7.08,0,0,1-2.42,1.88,7.68,7.68,0,0,1-3.39.7,7.76,7.76,0,0,1-3.4-.7,7.05,7.05,0,0,1-2.43-1.88,8,8,0,0,1-1.45-2.72A11.15,11.15,0,0,1,163.12,47.23Zm1.44,5.89a7,7,0,0,0,1.11,2.33,5.55,5.55,0,0,0,1.92,1.65,5.94,5.94,0,0,0,2.81.62,5.87,5.87,0,0,0,2.8-.62,5.62,5.62,0,0,0,1.91-1.65,7.12,7.12,0,0,0,1.11-2.33,10,10,0,0,0,0-5.29,7.15,7.15,0,0,0-1.11-2.32,5.63,5.63,0,0,0-1.91-1.65,5.85,5.85,0,0,0-2.8-.62,5.91,5.91,0,0,0-2.81.62,5.57,5.57,0,0,0-1.92,1.65,7.07,7.07,0,0,0-1.11,2.32A9.94,9.94,0,0,0,164.56,53.11Z"/><path class="cls-2" d="M195.2,42.25V54.12a8.34,8.34,0,0,1-.25,2.19,3.53,3.53,0,0,1-.82,1.52,3.46,3.46,0,0,1-1.48.9,7.23,7.23,0,0,1-2.25.3,4.93,4.93,0,0,1-2.3-.47,3.7,3.7,0,0,1-1.41-1.24,4.8,4.8,0,0,1-.69-1.79,11.78,11.78,0,0,1-.18-2.1h1.57q0,0.53.07,1.27a4.35,4.35,0,0,0,.32,1.4,2.68,2.68,0,0,0,.91,1.14,3.07,3.07,0,0,0,1.85.47,4.09,4.09,0,0,0,1.52-.24,2,2,0,0,0,.95-0.76,3.4,3.4,0,0,0,.48-1.32,11.69,11.69,0,0,0,.14-1.94V42.25h1.57Z"/><path class="cls-2" d="M199.92,42.25V52.43a8,8,0,0,0,.32,2.43,4.08,4.08,0,0,0,.95,1.64,3.64,3.64,0,0,0,1.52.92,6.6,6.6,0,0,0,2,.29,6.68,6.68,0,0,0,2.05-.29,3.63,3.63,0,0,0,1.52-.92,4.08,4.08,0,0,0,.95-1.64,8,8,0,0,0,.32-2.43V42.25h1.57V52.78a8,8,0,0,1-.36,2.41,5.28,5.28,0,0,1-1.13,2,5.38,5.38,0,0,1-2,1.35,8.9,8.9,0,0,1-5.85,0,5.38,5.38,0,0,1-2-1.35,5.28,5.28,0,0,1-1.13-2,8,8,0,0,1-.36-2.41V42.25h1.57Z"/><path class="cls-2" d="M216,42.25l9.59,13.92h0V42.25h1.57V58.7h-1.75l-9.58-13.92h0V58.7h-1.57V42.25H216Z"/><path class="cls-2" d="M241.88,42.25v1.34h-9.79v5.94h9.17v1.34h-9.17v6.5H242V58.7H230.52V42.25h11.36Z"/><path class="cls-2" d="M252.88,45.58a3.63,3.63,0,0,0,1.34-.38,2.47,2.47,0,0,0,.95-0.91,4.54,4.54,0,0,0,.54-1.72h1.17V58.7h-1.45v-12h-4.26v-1Q252.1,45.66,252.88,45.58Z"/><path class="cls-2" d="M264.16,55.31a3.62,3.62,0,0,0,.78,1.34,3.54,3.54,0,0,0,1.29.86,4.61,4.61,0,0,0,1.74.31,5.13,5.13,0,0,0,1.54-.23,4,4,0,0,0,1.31-.69,3.49,3.49,0,0,0,.92-1.13,3.25,3.25,0,0,0,.35-1.52,3.51,3.51,0,0,0-.3-1.51,3,3,0,0,0-.83-1.06,3.56,3.56,0,0,0-1.23-.63,5.36,5.36,0,0,0-1.51-.21H267V49.62h1.22a4,4,0,0,0,1.14-.17,3.26,3.26,0,0,0,1.06-.53A2.77,2.77,0,0,0,271.2,48a2.7,2.7,0,0,0,.3-1.31,3.1,3.1,0,0,0-.28-1.37,2.7,2.7,0,0,0-.76-0.95,3.14,3.14,0,0,0-1.12-.55,5.23,5.23,0,0,0-1.37-.17,4,4,0,0,0-1.59.3,3.19,3.19,0,0,0-1.16.84,3.51,3.51,0,0,0-.7,1.29,5.14,5.14,0,0,0-.21,1.65h-1.45a6,6,0,0,1,.36-2.12,4.88,4.88,0,0,1,1-1.67,4.66,4.66,0,0,1,1.6-1.11,5.33,5.33,0,0,1,2.12-.4,7.06,7.06,0,0,1,1.84.24,5,5,0,0,1,1.6.74,3.73,3.73,0,0,1,1.13,1.27,4.14,4.14,0,0,1-.28,4.13,3.38,3.38,0,0,1-2,1.29v0a3.78,3.78,0,0,1,2.45,1.33,4.11,4.11,0,0,1,.86,2.66,4.69,4.69,0,0,1-.45,2.11,4.56,4.56,0,0,1-1.21,1.53,5.11,5.11,0,0,1-1.77.93A7.17,7.17,0,0,1,268,59a6.86,6.86,0,0,1-2.29-.37,5.1,5.1,0,0,1-1.8-1.06,4.37,4.37,0,0,1-1.13-1.7,5.49,5.49,0,0,1-.29-2.33h1.45A4.72,4.72,0,0,0,264.16,55.31Z"/><path class="cls-2" d="M275.93,51.7h5.76V53h-5.76V51.7Z"/><path class="cls-2" d="M284.72,45.58a3.63,3.63,0,0,0,1.34-.38,2.47,2.47,0,0,0,.95-0.91,4.54,4.54,0,0,0,.54-1.72h1.17V58.7h-1.45v-12H283v-1Q283.95,45.66,284.72,45.58Z"/><path class="cls-2" d="M302.69,44.48a3.22,3.22,0,0,0-2.29-.83,3.49,3.49,0,0,0-2.28.71,4.8,4.8,0,0,0-1.36,1.8,8.27,8.27,0,0,0-.65,2.34,18.34,18.34,0,0,0-.16,2.36h0a4.78,4.78,0,0,1,4.29-2.67,5.7,5.7,0,0,1,2.2.4,4.87,4.87,0,0,1,1.67,1.12,5,5,0,0,1,1.07,1.7,6,6,0,0,1,.38,2.17,5.75,5.75,0,0,1-.4,2.18,5,5,0,0,1-2.86,2.86,5.87,5.87,0,0,1-2.2.4,6.47,6.47,0,0,1-2.54-.45,4,4,0,0,1-1.75-1.46,7.21,7.21,0,0,1-1-2.64,20.2,20.2,0,0,1-.33-4q0-.48.06-1.27a11,11,0,0,1,.27-1.67,11.32,11.32,0,0,1,.59-1.8,6.12,6.12,0,0,1,1-1.65,4.85,4.85,0,0,1,1.58-1.2,5.13,5.13,0,0,1,2.26-.46,5.25,5.25,0,0,1,3.43,1,4.6,4.6,0,0,1,1.52,3.18h-1.45A3.52,3.52,0,0,0,302.69,44.48Zm-4.13,5.27a3.73,3.73,0,0,0-1.27.91,3.85,3.85,0,0,0-.78,1.35,5.08,5.08,0,0,0-.27,1.67,5.52,5.52,0,0,0,.23,1.61,3.54,3.54,0,0,0,.73,1.33,3.42,3.42,0,0,0,1.26.89,4.64,4.64,0,0,0,1.82.32,3.63,3.63,0,0,0,1.58-.33,3.89,3.89,0,0,0,2-2.22,4.63,4.63,0,0,0,.28-1.59,5.16,5.16,0,0,0-.26-1.66,4.06,4.06,0,0,0-.76-1.36,3.56,3.56,0,0,0-1.22-.91,3.89,3.89,0,0,0-1.65-.33A4.11,4.11,0,0,0,298.56,49.75Z"/><path class="cls-1" d="M313.62,58.7a5.62,5.62,0,0,1,.42-2.12,6.11,6.11,0,0,1,1-1.66,9.65,9.65,0,0,1,1.45-1.35q0.8-.61,1.66-1.18t1.7-1.15A11.06,11.06,0,0,0,321.39,50a5,5,0,0,0,1-1.37,3.85,3.85,0,0,0,.33-1.67,3.24,3.24,0,0,0-.29-1.39,3.1,3.1,0,0,0-.78-1,3.39,3.39,0,0,0-1.15-.65,4.36,4.36,0,0,0-1.39-.22,3.61,3.61,0,0,0-1.69.37,3.18,3.18,0,0,0-1.14,1,4.15,4.15,0,0,0-.63,1.43,6.48,6.48,0,0,0-.17,1.7H314a7.53,7.53,0,0,1,.29-2.29,4.89,4.89,0,0,1,1-1.81,4.38,4.38,0,0,1,1.62-1.19,5.73,5.73,0,0,1,2.29-.43,6.51,6.51,0,0,1,2,.29,4.65,4.65,0,0,1,1.59.85A3.87,3.87,0,0,1,323.8,45a5.31,5.31,0,0,1,0,3.82,5.81,5.81,0,0,1-.9,1.52,8.76,8.76,0,0,1-1.29,1.28,15.82,15.82,0,0,1-1.53,1.1c-0.38.26-.84,0.55-1.36,0.86a14.18,14.18,0,0,0-1.51,1A8.2,8.2,0,0,0,316,55.88a3.17,3.17,0,0,0-.69,1.49h9V58.7H313.62Z"/><path class="cls-1" d="M334.88,43.21a5.35,5.35,0,0,1,1.7,2,8.65,8.65,0,0,1,.83,2.67,19.34,19.34,0,0,1,0,5.78,8.65,8.65,0,0,1-.83,2.67,5.26,5.26,0,0,1-1.7,2,5.78,5.78,0,0,1-5.73,0,5.22,5.22,0,0,1-1.72-2,8.6,8.6,0,0,1-.83-2.67,19.17,19.17,0,0,1,0-5.78,8.6,8.6,0,0,1,.83-2.67,5.32,5.32,0,0,1,1.72-2A5.7,5.7,0,0,1,334.88,43.21Zm-5.08,1.16a4.53,4.53,0,0,0-1.25,1.77,8.68,8.68,0,0,0-.56,2.3A18.91,18.91,0,0,0,328,53a8.85,8.85,0,0,0,.56,2.3,4.52,4.52,0,0,0,1.25,1.79,3.78,3.78,0,0,0,4.43,0,4.5,4.5,0,0,0,1.25-1.79A8.85,8.85,0,0,0,336,53a18.91,18.91,0,0,0,0-4.57,8.68,8.68,0,0,0-.56-2.3,4.51,4.51,0,0,0-1.25-1.77A3.78,3.78,0,0,0,329.8,44.37Z"/><path class="cls-1" d="M342.36,45.58a3.63,3.63,0,0,0,1.34-.38,2.47,2.47,0,0,0,.95-0.91,4.54,4.54,0,0,0,.54-1.72h1.17V58.7h-1.45v-12h-4.26v-1Q341.59,45.66,342.36,45.58Z"/><path class="cls-1" d="M360.34,44.48a3.22,3.22,0,0,0-2.29-.83,3.49,3.49,0,0,0-2.28.71,4.8,4.8,0,0,0-1.36,1.8,8.27,8.27,0,0,0-.65,2.34,18.34,18.34,0,0,0-.16,2.36h0a4.78,4.78,0,0,1,4.29-2.67,5.7,5.7,0,0,1,2.2.4,4.87,4.87,0,0,1,1.67,1.12,5,5,0,0,1,1.07,1.7,6,6,0,0,1,.38,2.17,5.75,5.75,0,0,1-.4,2.18A5,5,0,0,1,360,58.62a5.87,5.87,0,0,1-2.2.4,6.47,6.47,0,0,1-2.54-.45,4,4,0,0,1-1.75-1.46,7.21,7.21,0,0,1-1-2.64,20.2,20.2,0,0,1-.33-4q0-.48.06-1.27a11,11,0,0,1,.27-1.67,11.32,11.32,0,0,1,.59-1.8,6.12,6.12,0,0,1,1-1.65,4.85,4.85,0,0,1,1.58-1.2,5.13,5.13,0,0,1,2.26-.46,5.25,5.25,0,0,1,3.43,1,4.6,4.6,0,0,1,1.52,3.18h-1.45A3.52,3.52,0,0,0,360.34,44.48Zm-4.13,5.27a3.73,3.73,0,0,0-1.27.91,3.85,3.85,0,0,0-.78,1.35,5.08,5.08,0,0,0-.27,1.67,5.52,5.52,0,0,0,.23,1.61,3.54,3.54,0,0,0,.73,1.33,3.42,3.42,0,0,0,1.26.89,4.64,4.64,0,0,0,1.82.32,3.63,3.63,0,0,0,1.58-.33,3.89,3.89,0,0,0,2-2.22,4.63,4.63,0,0,0,.28-1.59,5.16,5.16,0,0,0-.26-1.66,4.06,4.06,0,0,0-.76-1.36,3.56,3.56,0,0,0-1.22-.91,3.89,3.89,0,0,0-1.65-.33A4.11,4.11,0,0,0,356.21,49.75Z"/><path class="cls-1" d="M0.1,22.82H10.2v0.6c0,1.3.3,2.2,0.9,2.6a7.8,7.8,0,0,0,3.9.7H27.8a4.47,4.47,0,0,0,2.7-.6,2.56,2.56,0,0,0,.8-2.1,2.66,2.66,0,0,0-.9-2.2,10.61,10.61,0,0,0-4-.9l-16.1-.4c-4-.1-6.8-0.9-8.2-2.3s-2.1-4-2.1-7.7a19.85,19.85,0,0,1,.5-4.7,7.93,7.93,0,0,1,1.8-3.1,8.63,8.63,0,0,1,3.8-2A31.17,31.17,0,0,1,14,0H29.6c3.9,0,6.6.7,8.4,2.1s2.5,3.7,2.5,6.9v0.7a6.82,6.82,0,0,1-.1,1.2H30.6v-0.1a3.74,3.74,0,0,0-.8-2.5,3.74,3.74,0,0,0-2.5-.8H15.4q-3,0-3.9.6a2.26,2.26,0,0,0-.9,2,2.45,2.45,0,0,0,.9,2.1,6.62,6.62,0,0,0,3.2.8l16.8,0.3c3.8,0.1,6.5,1,8.1,2.6s2.3,4.4,2.3,8.3a13.16,13.16,0,0,1-.9,5.4,8.29,8.29,0,0,1-2.9,3.3,8.48,8.48,0,0,1-3.7,1.2,51.83,51.83,0,0,1-6.7.4H14.1c-5.6,0-9.4-.6-11.2-1.9S0,28.92,0,25.42v-1a7.59,7.59,0,0,0,.1-1.6"/><path class="cls-1" d="M45.4,0.42H55.6v19.9q0,3.45,1.5,4.5c1,0.8,3.3,1.2,6.7,1.2h5.8c2.9,0,4.8-.4,5.8-1.2s1.5-2.3,1.5-4.5V0.42H87.2v23c0,4-1.1,6.8-3.2,8.4s-5.8,2.5-11,2.5H61.5c-6.1,0-10.4-.8-12.7-2.4s-3.5-4.4-3.5-8.5Z"/><path class="cls-1" d="M123.3,12.52h0c0-1.6-.5-2.7-1.4-3.2s-3-.8-6.3-0.8h-6c-3.5,0-5.7.4-6.7,1.3s-1.5,2.6-1.5,5.3v4.7c0,2.4.6,4.1,1.7,5s3.3,1.3,6.6,1.3h5.9a16.68,16.68,0,0,0,6.1-.8,2.8,2.8,0,0,0,1.7-2.8,3.44,3.44,0,0,0-.1-0.9v-0.1h-12v-6.8H134v11c0,3.2-1.2,5.4-3.5,6.7s-6.4,2-12.2,2H106.9a35.31,35.31,0,0,1-7.7-.6,10.18,10.18,0,0,1-4.2-1.9A11.35,11.35,0,0,1,92,28a15.06,15.06,0,0,1-1-6v-9.2c0-4.8,1.1-8.1,3.4-10S100.8,0,106.8,0h11.4a52.69,52.69,0,0,1,8.2.5,8.62,8.62,0,0,1,4.1,1.7,7.29,7.29,0,0,1,2.3,3.3,15.16,15.16,0,0,1,.8,5.1v1.9H123.3Z"/><path class="cls-1" d="M144.8,33.92H133.6l18.3-33.5H165l18,33.5H171.8l-3.3-5.6H148.1Zm7.1-13.6h12.9l-6.5-11.9Z"/><path class="cls-1" d="M212.9,0.42c5.3,0,8.9.8,10.9,2.4s2.9,4.5,2.9,8.6c0,2.9-.4,5.1-1.3,6.5a6.36,6.36,0,0,1-4.3,2.8,7.37,7.37,0,0,1,4,2.2,6.11,6.11,0,0,1,1.3,4.1v6.8H216.1v-5.1a3.37,3.37,0,0,0-.9-2.7c-0.6-.5-1.8-0.7-3.7-0.7H196.3v8.5H186V0.42h26.9Zm-0.4,8.4H196.2V17h16.3a3.52,3.52,0,0,0,2.9-1c0.6-.6.8-1.8,0.8-3.5a4,4,0,0,0-.9-2.9,4.25,4.25,0,0,0-2.8-.8"/><polygon class="cls-2" points="349.8 34.52 333 9.72 333.1 34.52 323.1 34.52 323.1 1.02 337.3 1.02 353.2 24.52 353.1 1.02 363.2 1.02 363.2 34.52 349.8 34.52"/><path class="cls-2" d="M316.1,3.42c-2.3-1.9-6.4-2.9-12.4-2.9H291.8c-6,0-10.1.9-12.4,2.9s-3.4,5.3-3.4,10.1v9.1a16.64,16.64,0,0,0,.9,5.9,8.73,8.73,0,0,0,2.9,3.9,11.53,11.53,0,0,0,4.2,1.9,35.94,35.94,0,0,0,7.7.6h11.9a35.31,35.31,0,0,0,7.7-.6,10.18,10.18,0,0,0,4.2-1.9,9.1,9.1,0,0,0,2.9-3.9,16.64,16.64,0,0,0,.9-5.9v-9.1c0.2-4.8-.9-8.2-3.2-10.1m-7,16.8c0,2.4-.6,4.1-1.7,5s-3.3,1.3-6.6,1.3h-6.2c-3.3,0-5.5-.4-6.6-1.3s-1.7-2.6-1.7-5v-4.6c0-2.7.5-4.5,1.5-5.3S291.1,9,294.6,9h6.2c3.5,0,5.8.4,6.8,1.3s1.5,2.6,1.5,5.3v4.61h0Z"/><path class="cls-2" d="M262.2,13.12v-0.3a3.24,3.24,0,0,0-1.3-2.9,7.33,7.33,0,0,0-4.1-.9h-8.2c-3.5,0-5.8.4-6.8,1.3s-1.5,2.6-1.5,5.3v4.61c0,2.4.6,4.1,1.7,5s3.3,1.3,6.6,1.3h5.9c3.2,0,5.4-.3,6.4-1a4.09,4.09,0,0,0,1.5-3.6v-0.4h10.4v0.2a20.35,20.35,0,0,1,.1,2.2,15.56,15.56,0,0,1-.8,5.3,7,7,0,0,1-2.5,3.3,10.4,10.4,0,0,1-4.4,1.7,41.45,41.45,0,0,1-8,.5H245.8a35.31,35.31,0,0,1-7.7-.6,10.18,10.18,0,0,1-4.2-1.9,9.1,9.1,0,0,1-2.9-3.9,16.64,16.64,0,0,1-.9-5.9v-9.1c0-4.8,1.2-8.2,3.4-10.1s6.4-2.9,12.4-2.9h11.4a50.29,50.29,0,0,1,8.1.5,9.08,9.08,0,0,1,4.1,1.7,7.46,7.46,0,0,1,2.4,3.3,15.57,15.57,0,0,1,.7,5.2v1.1a2.2,2.2,0,0,1-.1.8l-10.3.2h0Z"/></svg>